<svg width="0" height="0" class="hidden">
    <symbol fill="none" xmlns="http://www.w3.org/2000/svg" viewBox="0 0 36 35" id="Social">
        <path d="M24.5625 13.6719V30.0781C24.5603 30.8027 24.2716 31.4969 23.7592 32.0092C23.2469 32.5216 22.5527 32.8103 21.8281 32.8125H9.79688C9.07234 32.8103 8.3781 32.5216 7.86577 32.0092C7.35344 31.4969 7.06466 30.8027 7.0625 30.0781V15.3125" stroke="currentColor" stroke-width="2" stroke-linecap="round" stroke-linejoin="round"></path>
        <path d="M24.5625 15.3125H27.2969C28.3113 15.3154 29.2833 15.7196 30.0006 16.4369C30.7179 17.1542 31.1221 18.1262 31.125 19.1406V24.6094C31.1221 25.6238 30.7179 26.5958 30.0006 27.3131C29.2833 28.0304 28.3113 28.4346 27.2969 28.4375H24.5625" stroke="currentColor" stroke-width="2" stroke-miterlimit="10" stroke-linecap="round"></path>
        <path d="M15.8125 17.5V28.4375" stroke="currentColor" stroke-width="2" stroke-linecap="round" stroke-linejoin="round"></path>
        <path d="M20.1875 17.5V28.4375" stroke="currentColor" stroke-width="2" stroke-linecap="round" stroke-linejoin="round"></path>
        <path d="M11.4375 17.5V28.4375" stroke="currentColor" stroke-width="2" stroke-linecap="round" stroke-linejoin="round"></path>
        <path d="M22.375 7.65625C23.2452 7.65625 24.0798 8.00195 24.6952 8.61731C25.3105 9.23266 25.6562 10.0673 25.6562 10.9375C25.6562 11.8077 25.3105 12.6423 24.6952 13.2577C24.0798 13.873 23.2452 14.2188 22.375 14.2188C21.4692 14.2188 20.3714 13.719 19.7773 13.125H11.4375C10.8906 14.6289 9.5918 15.3125 8.15625 15.3125C7.28601 15.3125 6.45141 14.9668 5.83606 14.3514C5.2207 13.7361 4.875 12.9015 4.875 12.0312C4.875 11.161 5.2207 10.3264 5.83606 9.71106C6.45141 9.0957 7.28601 8.75 8.15625 8.75C8.79611 8.77689 9.41404 8.99079 9.93359 9.36523" stroke="currentColor" stroke-width="2" stroke-linecap="round" stroke-linejoin="round"></path>
        <path d="M6.77947 9.05282C6.51135 8.78717 6.30113 8.4689 6.16204 8.11802C6.02295 7.76715 5.95801 7.39128 5.9713 7.01408C5.98459 6.63688 6.07583 6.26652 6.23927 5.92631C6.40271 5.5861 6.63482 5.28341 6.92097 5.03729C7.20713 4.79118 7.54114 4.60697 7.90197 4.49627C8.2628 4.38557 8.64265 4.35076 9.01759 4.39405C9.39254 4.43734 9.75446 4.55778 10.0806 4.7478C10.4067 4.93781 10.6899 5.19329 10.9125 5.49813C10.9125 5.49813 11.4375 6.22069 11.4375 6.56249" stroke="currentColor" stroke-width="2" stroke-miterlimit="10" stroke-linecap="round"></path>
        <path d="M10.4689 4.42354C11.6576 3.06865 13.3222 2.1875 15.2656 2.1875C18.8463 2.1875 21.6914 5.11602 21.6914 8.696C21.6917 9.10405 21.6534 9.51123 21.5773 9.91211" stroke="currentColor" stroke-width="2" stroke-miterlimit="10" stroke-linecap="round"></path>
    </symbol>
    <symbol fill="none" xmlns="http://www.w3.org/2000/svg" viewBox="0 0 36 35" id="Argent">
        <path d="M3.78125 22.9688L32.2188 22.9688C32.8228 22.9688 33.3125 22.4791 33.3125 21.875V6.5625C33.3125 5.95844 32.8228 5.46875 32.2188 5.46875L3.78125 5.46875C3.17719 5.46875 2.6875 5.95844 2.6875 6.5625L2.6875 21.875C2.6875 22.4791 3.17719 22.9688 3.78125 22.9688Z" stroke="currentColor" stroke-width="2" stroke-linejoin="round"></path>
        <path d="M4.875 26.25H31.125" stroke="currentColor" stroke-width="2" stroke-linecap="round" stroke-linejoin="round"></path>
        <path d="M7.0625 29.5312H28.9375" stroke="currentColor" stroke-width="2" stroke-linecap="round" stroke-linejoin="round"></path>
        <path d="M18 19.6875C21.0203 19.6875 23.4688 17.2391 23.4688 14.2188C23.4688 11.1984 21.0203 8.75 18 8.75C14.9797 8.75 12.5312 11.1984 12.5312 14.2188C12.5312 17.2391 14.9797 19.6875 18 19.6875Z" stroke="currentColor" stroke-width="2" stroke-linecap="round" stroke-linejoin="round"></path>
        <path d="M33.3125 10.9375C31.8621 10.9375 30.4711 10.3613 29.4455 9.33574C28.4199 8.31015 27.8438 6.91915 27.8438 5.46875" stroke="currentColor" stroke-width="2" stroke-linecap="round" stroke-linejoin="round"></path>
        <path d="M2.6875 10.9375C3.40567 10.9375 4.1168 10.796 4.7803 10.5212C5.4438 10.2464 6.04667 9.84356 6.55449 9.33574C7.06231 8.82792 7.46514 8.22505 7.73997 7.56155C8.0148 6.89805 8.15625 6.18692 8.15625 5.46875" stroke="currentColor" stroke-width="2" stroke-linecap="round" stroke-linejoin="round"></path>
        <path d="M33.3125 17.5C31.8621 17.5 30.4711 18.0762 29.4455 19.1018C28.4199 20.1273 27.8438 21.5183 27.8438 22.9688" stroke="currentColor" stroke-width="2" stroke-linecap="round" stroke-linejoin="round"></path>
        <path d="M2.6875 17.5C3.40567 17.5 4.1168 17.6415 4.7803 17.9163C5.4438 18.1911 6.04667 18.5939 6.55449 19.1018C7.06231 19.6096 7.46514 20.2124 7.73997 20.8759C8.0148 21.5394 8.15625 22.2506 8.15625 22.9688" stroke="currentColor" stroke-width="2" stroke-linecap="round" stroke-linejoin="round"></path>
    </symbol>
    <symbol fill="none" xmlns="http://www.w3.org/2000/svg" viewBox="0 0 36 35" id="Mental">
        <path d="M13.7188 15.8594C13.7188 16.2132 13.4319 16.5 13.0781 16.5C12.7243 16.5 12.4375 16.2132 12.4375 15.8594C12.4375 15.5056 12.7243 15.2188 13.0781 15.2188C13.4319 15.2188 13.7188 15.5056 13.7188 15.8594Z" fill="currentColor" stroke="currentColor" stroke-width="2"></path>
        <mask id="path-2-inside-1_14_278" fill="white">
            <path d="M18.0034 26.25C14.8985 26.25 12.2872 24.2313 11.4607 21.4765C11.4376 21.3945 11.4339 21.3082 11.4501 21.2246C11.4662 21.141 11.5016 21.0622 11.5535 20.9947C11.6055 20.9272 11.6724 20.8727 11.7491 20.8357C11.8258 20.7986 11.9101 20.78 11.9953 20.7813H24.0053C24.0905 20.78 24.1748 20.7986 24.2515 20.8357C24.3282 20.8727 24.3952 20.9272 24.4471 20.9947C24.499 21.0622 24.5344 21.141 24.5505 21.2246C24.5667 21.3082 24.563 21.3945 24.5399 21.4765C23.7203 24.2313 21.1083 26.25 18.0034 26.25Z"></path>
        </mask>
        <path d="M18.0034 26.25C14.8985 26.25 12.2872 24.2313 11.4607 21.4765C11.4376 21.3945 11.4339 21.3082 11.4501 21.2246C11.4662 21.141 11.5016 21.0622 11.5535 20.9947C11.6055 20.9272 11.6724 20.8727 11.7491 20.8357C11.8258 20.7986 11.9101 20.78 11.9953 20.7813H24.0053C24.0905 20.78 24.1748 20.7986 24.2515 20.8357C24.3282 20.8727 24.3952 20.9272 24.4471 20.9947C24.499 21.0622 24.5344 21.141 24.5505 21.2246C24.5667 21.3082 24.563 21.3945 24.5399 21.4765C23.7203 24.2313 21.1083 26.25 18.0034 26.25Z" fill="currentColor"></path>
        <path d="M11.4607 21.4765L9.53575 22.0192L9.54027 22.0352L9.54505 22.0512L11.4607 21.4765ZM11.9953 20.7813L11.9652 22.781L11.9803 22.7813H11.9953V20.7813ZM24.0053 20.7813V22.7813H24.0204L24.0354 22.781L24.0053 20.7813ZM24.5399 21.4765L26.4569 22.0468L26.461 22.033L26.4649 22.0192L24.5399 21.4765ZM18.0034 24.25C15.7773 24.25 13.9478 22.8065 13.3764 20.9018L9.54505 22.0512C10.6266 25.6562 14.0197 28.25 18.0034 28.25V24.25ZM13.3857 20.9337C13.4471 21.1516 13.4568 21.3808 13.4139 21.603L9.48619 20.8462C9.41113 21.2357 9.4281 21.6374 9.53575 22.0192L13.3857 20.9337ZM13.4139 21.603C13.3711 21.8252 13.277 22.0344 13.139 22.2138L9.96805 19.7756C9.72624 20.0901 9.56124 20.4567 9.48619 20.8462L13.4139 21.603ZM13.139 22.2138C13.001 22.3933 12.8231 22.538 12.6193 22.6364L10.879 19.0349C10.5218 19.2075 10.2099 19.4611 9.96805 19.7756L13.139 22.2138ZM12.6193 22.6364C12.4155 22.7349 12.1915 22.7844 11.9652 22.781L12.0253 18.7815C11.6287 18.7755 11.2361 18.8623 10.879 19.0349L12.6193 22.6364ZM11.9953 22.7813H24.0053V18.7813H11.9953V22.7813ZM24.0354 22.781C23.8091 22.7844 23.5851 22.7349 23.3813 22.6364L25.1217 19.0349C24.7645 18.8623 24.3719 18.7755 23.9753 18.7815L24.0354 22.781ZM23.3813 22.6364C23.1775 22.538 22.9996 22.3933 22.8616 22.2138L26.0326 19.7756C25.7908 19.4611 25.4788 19.2075 25.1217 19.0349L23.3813 22.6364ZM22.8616 22.2138C22.7236 22.0344 22.6295 21.8252 22.5867 21.603L26.5144 20.8462C26.4394 20.4567 26.2744 20.0901 26.0326 19.7756L22.8616 22.2138ZM22.5867 21.603C22.5439 21.3808 22.5535 21.1516 22.615 20.9337L26.4649 22.0192C26.5725 21.6374 26.5895 21.2357 26.5144 20.8462L22.5867 21.603ZM22.6229 20.9061C22.0577 22.806 20.2306 24.25 18.0034 24.25V28.25C21.9859 28.25 25.3828 25.6567 26.4569 22.0468L22.6229 20.9061Z" fill="currentColor" mask="url(#path-2-inside-1_14_278)"></path>
        <path d="M23.5625 15.8594C23.5625 16.2132 23.2757 16.5 22.9219 16.5C22.5681 16.5 22.2812 16.2132 22.2812 15.8594C22.2812 15.5056 22.5681 15.2188 22.9219 15.2188C23.2757 15.2188 23.5625 15.5056 23.5625 15.8594Z" fill="currentColor" stroke="currentColor" stroke-width="2"></path>
        <path d="M18 31.7188C25.8528 31.7188 32.2188 25.3528 32.2188 17.5C32.2188 9.6472 25.8528 3.28125 18 3.28125C10.1472 3.28125 3.78125 9.6472 3.78125 17.5C3.78125 25.3528 10.1472 31.7188 18 31.7188Z" stroke="currentColor" stroke-width="2" stroke-miterlimit="10"></path>
    </symbol>
    <symbol fill="none" xmlns="http://www.w3.org/2000/svg" viewBox="0 0 36 35" id="Santé">
        <path d="M24.6254 5.46875C20.1875 5.46875 18 9.84375 18 9.84375C18 9.84375 15.8125 5.46875 11.3746 5.46875C7.76794 5.46875 4.91188 8.48613 4.87497 12.0866C4.79977 19.5604 10.8038 24.8753 17.3847 29.3419C17.5662 29.4653 17.7805 29.5313 18 29.5313C18.2194 29.5313 18.4338 29.4653 18.6152 29.3419C25.1955 24.8753 31.1995 19.5604 31.125 12.0866C31.0881 8.48613 28.232 5.46875 24.6254 5.46875Z" stroke="currentColor" stroke-width="2" stroke-linecap="round" stroke-linejoin="round"></path>
        <path d="M3.78125 17.5H11.4375L14.7188 10.9375L18 21.875L21.2812 15.3125L23.4688 19.6875H32.2188" stroke="currentColor" stroke-width="2" stroke-linecap="round" stroke-linejoin="round"></path>
    </symbol>
</svg>