<svg width="69" height="69" viewBox="0 0 69 69" fill="none" xmlns="http://www.w3.org/2000/svg">
<path d="M68.6298 17.3945C67.7905 16.1285 66.0658 15.9565 64.9973 16.9441L58.7433 22.7309C58.5709 22.8904 58.3554 22.9957 58.1236 23.0335C57.8918 23.0714 57.654 23.0401 57.4398 22.9437L52.1387 20.5583C51.6082 20.3196 50.9925 20.5064 50.6614 20.9847C49.4644 22.7128 47.589 23.563 46.044 22.9145C44.4463 22.2439 43.7385 20.1982 44.2246 18.0546C44.3506 17.4988 44.0769 16.9305 43.5572 16.6967L37.7561 14.0863C36.7204 13.6202 35.5735 13.4586 34.4494 13.6203C33.3253 13.782 32.2704 14.2604 31.4081 14.9994L24.861 20.6112C23.9564 21.3867 23.6475 22.7231 24.2669 23.7409C25.0569 25.0385 26.7747 25.2756 27.8787 24.3282L34.5233 18.633C34.6958 18.4851 34.9069 18.3895 35.1317 18.3571C35.3566 18.3247 35.586 18.357 35.7932 18.4503L38.5542 19.6925C39.771 20.2401 40.3048 21.6768 39.7411 22.8861L30.2912 43.1513C30.1674 43.4178 29.9498 43.6293 29.68 43.7453C29.4101 43.8614 29.1069 43.874 28.8284 43.7805L19.3032 40.6114L17.6826 45.1142L28.1534 48.5952C28.7636 48.7992 29.4027 48.9034 30.0462 48.9036C32.3145 48.9036 34.4604 47.6056 35.4663 45.4483L38.136 40.2328L49.2172 44.8139C49.3796 44.8813 49.525 44.9837 49.6432 45.1139C49.7613 45.2441 49.8492 45.3987 49.9006 45.5668L53.8388 57.8301H58.6244L54.2284 43.1832C53.971 42.3431 53.5313 41.5701 52.9406 40.9196C52.3499 40.269 51.6229 39.757 50.8114 39.4199L44.8756 36.9468L49.4319 27.1763C49.9851 25.99 51.3888 25.4684 52.5823 26.0055L55.4756 27.3075C56.248 27.6557 57.0855 27.8359 57.9328 27.8361C59.4386 27.8359 60.8889 27.2672 61.9934 26.2437L68.1569 20.5413C69.0309 19.7329 69.2877 18.3866 68.6298 17.3945Z" fill="#F5C882"/>
<path d="M30.8056 42.0475L30.2907 43.1514C30.167 43.4178 29.9494 43.6293 29.6796 43.7454C29.4097 43.8615 29.1065 43.874 28.828 43.7806L30.5382 44.3291C31.6069 44.6718 32.7623 44.156 33.2206 43.1316L33.2529 43.0592L30.8056 42.0475Z" fill="#F5AF73"/>
<path d="M62.2138 62.6158H53.8389V57.8302H58.6245C60.6068 57.8302 62.2138 59.4371 62.2138 61.4194V62.6158ZM11.9642 46.8714L14.7996 38.991L19.3026 40.6113L17.6823 45.1143C17.0112 46.9795 14.9551 47.9477 13.0899 47.2764L11.9642 46.8714Z" fill="#D5DCED"/>
<path d="M51.4461 17.1519C48.803 17.1519 46.6604 15.0093 46.6604 12.3662V9.97334C46.6604 7.99108 48.2673 6.38413 50.2496 6.38413H55.6335C55.7922 6.38417 55.9443 6.44721 56.0565 6.55939C56.1687 6.67157 56.2317 6.82371 56.2317 6.98236V12.3662C56.2317 15.0093 54.0891 17.1519 51.4461 17.1519Z" fill="#F5C882"/>
<path d="M49.4321 27.1765C49.9853 25.9901 51.389 25.4686 52.5825 26.0056L53.405 26.3758L55.456 22.0511L52.1385 20.5583C51.608 20.3196 50.9923 20.5064 50.6612 20.9847C49.4642 22.7128 47.5888 23.563 46.0438 22.9145C44.446 22.2439 43.7384 20.1982 44.2243 18.0546C44.3504 17.4988 44.0766 16.9305 43.557 16.6967L39.8741 15.0393L37.8234 19.364L38.5537 19.6925C39.7705 20.2401 40.3043 21.6768 39.7406 22.8861L35.0747 32.8917L44.877 36.944L49.4321 27.1765Z" fill="#7DF5A5"/>
<path d="M44.8773 36.944L35.075 32.8918L30.8056 42.0475L36.089 44.2316L38.1359 40.2329L47.1552 43.9614L49.2368 38.7639L44.8758 36.947L44.8773 36.944Z" fill="#5B5D6E"/>
<path opacity="0.27" d="M40.8157 20.6504L38.5539 19.6925C39.7707 20.2401 40.3045 21.6768 39.7408 22.8861L35.075 32.8917L37.3753 33.8428L41.9671 23.5767C42.4705 22.451 41.9514 21.1314 40.8157 20.6504Z" fill="#5B5D6E"/>
<path d="M37.3753 33.8427L35.075 32.8918L30.8056 42.0475L33.2528 43.0592L37.3753 33.8427Z" fill="#464655"/>
<path d="M39.7407 22.8861L35.0748 32.8917L37.3751 33.8428L41.967 23.5767C42.4705 22.451 41.9512 21.1313 40.8157 20.6504L38.5539 19.6925C39.7707 20.2402 40.3047 21.677 39.7407 22.8861Z" fill="#64DCA0"/>
<path d="M50.2496 12.3662V9.97334C50.2496 7.99108 51.8566 6.38413 53.8388 6.38413H50.2496C48.2673 6.38413 46.6604 7.99108 46.6604 9.97334V12.3662C46.6604 15.0093 48.803 17.1519 51.4461 17.1519C52.0816 17.1519 52.6856 17.0221 53.2407 16.7971C51.4882 16.0864 50.2496 14.3737 50.2496 12.3662Z" fill="#F5AF73"/>
<path d="M50.2496 6.38413C48.2673 6.38413 46.6604 7.99108 46.6604 9.97334V12.3662C46.6604 12.7819 46.7299 13.1782 46.8295 13.5627H48.9691C49.7692 13.5627 50.5162 13.1628 50.9601 12.4971L51.9322 11.0389C52.1507 10.7112 52.4468 10.4424 52.7941 10.2565C53.1414 10.0706 53.5292 9.97337 53.9232 9.97334H56.2319V6.98236C56.2318 6.82371 56.1688 6.67157 56.0566 6.55939C55.9444 6.44721 55.7923 6.38417 55.6336 6.38413H50.2496Z" fill="#6E4848"/>
<path d="M46.6604 9.97334V12.3662C46.6604 12.7819 46.7299 13.1782 46.8295 13.5627H48.9691C49.4589 13.5627 49.9194 13.398 50.3121 13.1289C50.2711 12.8768 50.2501 12.6218 50.2496 12.3664V9.97334C50.2496 7.99108 51.8566 6.38413 53.8388 6.38413H50.2496C48.2673 6.38413 46.6604 7.99108 46.6604 9.97334Z" fill="#643C3E"/>
<path d="M25.9463 36.1791L16.375 36.1786C16.2179 36.1786 16.0623 36.1477 15.9171 36.0876C15.7719 36.0274 15.64 35.9393 15.5289 35.8282C15.4178 35.7171 15.3297 35.5852 15.2696 35.44C15.2094 35.2948 15.1785 35.1392 15.1786 34.9821C15.1786 34.3214 15.7148 33.7857 16.375 33.7857L25.9463 33.7862C26.1035 33.7862 26.2591 33.8171 26.4042 33.8772C26.5494 33.9373 26.6813 34.0254 26.7924 34.1366C26.9035 34.2477 26.9917 34.3796 27.0518 34.5247C27.1119 34.6699 27.1428 34.8255 27.1428 34.9827C27.1428 35.6434 26.6064 36.1791 25.9463 36.1791ZM22.3571 31.3934C21.697 31.3934 21.1607 30.8577 21.1607 30.197C21.1606 30.0399 21.1916 29.8843 21.2517 29.7391C21.3118 29.5939 21.3999 29.462 21.511 29.3509C21.6221 29.2398 21.754 29.1517 21.8992 29.0915C22.0444 29.0314 22.2 29.0005 22.3571 29.0005L25.9463 29C26.6064 29 27.1428 29.5357 27.1428 30.1964C27.1428 30.3536 27.1119 30.5092 27.0518 30.6544C26.9917 30.7995 26.9035 30.9314 26.7924 31.0425C26.6813 31.1537 26.5494 31.2418 26.4042 31.3019C26.2591 31.362 26.1035 31.3929 25.9463 31.3929L22.3571 31.3934ZM11.5893 36.1786H9.19645C9.03932 36.1786 8.88372 36.1477 8.73855 36.0876C8.59337 36.0274 8.46146 35.9393 8.35035 35.8282C8.23925 35.7171 8.15112 35.5852 8.091 35.44C8.03089 35.2948 7.99996 35.1392 8 34.9821C7.99996 34.825 8.03089 34.6694 8.091 34.5242C8.15112 34.379 8.23925 34.2471 8.35035 34.136C8.46146 34.0249 8.59337 33.9368 8.73855 33.8767C8.88372 33.8165 9.03932 33.7856 9.19645 33.7857H11.5893C11.7465 33.7856 11.9021 33.8165 12.0473 33.8767C12.1924 33.9368 12.3243 34.0249 12.4354 34.136C12.5466 34.2471 12.6347 34.379 12.6948 34.5242C12.7549 34.6694 12.7858 34.825 12.7858 34.9821C12.7858 35.1392 12.7549 35.2948 12.6948 35.44C12.6347 35.5852 12.5466 35.7171 12.4354 35.8282C12.3243 35.9393 12.1924 36.0274 12.0473 36.0876C11.9021 36.1477 11.7465 36.1786 11.5893 36.1786Z" fill="#E4EAF8"/>
</svg>
