<svg width="69" height="69" viewBox="0 0 69 69" fill="none" xmlns="http://www.w3.org/2000/svg">
<path d="M68.6298 17.3945C67.7905 16.1285 66.0658 15.9565 64.9973 16.9441L58.7433 22.7309C58.5709 22.8904 58.3554 22.9957 58.1236 23.0335C57.8918 23.0714 57.654 23.0401 57.4398 22.9437L52.1387 20.5583C51.6082 20.3196 50.9925 20.5064 50.6614 20.9847C49.4644 22.7128 47.589 23.563 46.044 22.9145C44.4463 22.2439 43.7385 20.1982 44.2246 18.0546C44.3506 17.4988 44.0769 16.9305 43.5572 16.6967L37.7561 14.0863C36.7204 13.6202 35.5735 13.4586 34.4494 13.6203C33.3253 13.782 32.2704 14.2604 31.4081 14.9994L24.861 20.6112C23.9564 21.3867 23.6475 22.7231 24.2669 23.7409C25.0569 25.0385 26.7747 25.2756 27.8787 24.3282L34.5233 18.633C34.6958 18.4851 34.9069 18.3894 35.1317 18.3571C35.3566 18.3247 35.586 18.357 35.7932 18.4502L38.5542 19.6925C39.771 20.2401 40.3048 21.6768 39.7411 22.8861L30.2912 43.1513C30.1674 43.4178 29.9498 43.6293 29.68 43.7453C29.4101 43.8614 29.1069 43.874 28.8284 43.7805L19.3032 40.6114L17.6826 45.1142L28.1534 48.5952C28.7636 48.7992 29.4027 48.9034 30.0462 48.9036C32.3145 48.9036 34.4604 47.6056 35.4663 45.4483L38.136 40.2328L49.2172 44.8139C49.3796 44.8813 49.525 44.9837 49.6432 45.1139C49.7613 45.2441 49.8492 45.3987 49.9006 45.5668L53.8388 57.8301H58.6244L54.2284 43.1832C53.971 42.3431 53.5313 41.5701 52.9406 40.9196C52.3499 40.269 51.6229 39.7569 50.8114 39.4199L44.8756 36.9468L49.4319 27.1763C49.9851 25.99 51.3888 25.4684 52.5823 26.0055L55.4756 27.3074C56.248 27.6557 57.0855 27.8359 57.9328 27.8361C59.4386 27.8359 60.8889 27.2672 61.9934 26.2437L68.1569 20.5413C69.0309 19.7329 69.2877 18.3866 68.6298 17.3945Z" fill="#F5C882"/>
<path d="M30.8056 42.0475L30.2908 43.1514C30.1671 43.4178 29.9495 43.6293 29.6796 43.7454C29.4098 43.8615 29.1066 43.874 28.8281 43.7806L30.5382 44.3291C31.6069 44.6718 32.7624 44.156 33.2206 43.1316L33.253 43.0592L30.8056 42.0475Z" fill="#F5AF73"/>
<path d="M32.3033 31.5084H1.19645C1.03932 31.5084 0.883722 31.4775 0.738546 31.4174C0.59337 31.3573 0.461461 31.2692 0.350353 31.158C0.239245 31.0469 0.151117 30.915 0.0910022 30.7699C0.0308875 30.6247 -3.53792e-05 30.4691 3.03759e-08 30.312C-3.53792e-05 30.1548 0.0308875 29.9992 0.0910022 29.854C0.151117 29.7089 0.239245 29.577 0.350353 29.4659C0.461461 29.3547 0.59337 29.2666 0.738546 29.2065C0.883722 29.1464 1.03932 29.1155 1.19645 29.1155H32.3033C32.4604 29.1155 32.616 29.1464 32.7612 29.2065C32.9064 29.2666 33.0383 29.3547 33.1494 29.4659C33.2605 29.577 33.3487 29.7089 33.4088 29.854C33.4689 29.9992 33.4998 30.1548 33.4998 30.312C33.4998 30.4691 33.4689 30.6247 33.4088 30.7699C33.3487 30.915 33.2605 31.0469 33.1494 31.158C33.0383 31.2692 32.9064 31.3573 32.7612 31.4174C32.616 31.4775 32.4604 31.5084 32.3033 31.5084Z" fill="#D5DCED"/>
<path d="M20.3391 26.7233L10.7678 26.7227C10.6106 26.7228 10.455 26.6918 10.3099 26.6317C10.1647 26.5716 10.0328 26.4835 9.92168 26.3724C9.81057 26.2613 9.72244 26.1293 9.66233 25.9842C9.60221 25.839 9.57129 25.6834 9.57132 25.5263C9.57132 24.8655 10.1076 24.3298 10.7678 24.3298L20.3391 24.3304C20.4962 24.3303 20.6518 24.3612 20.797 24.4214C20.9422 24.4815 21.0741 24.5696 21.1852 24.6807C21.2963 24.7918 21.3844 24.9237 21.4445 25.0689C21.5047 25.2141 21.5356 25.3697 21.5355 25.5268C21.5355 26.1876 20.9992 26.7233 20.3391 26.7233ZM16.7499 21.9376C16.0898 21.9376 15.5534 21.4019 15.5534 20.7411C15.5534 20.584 15.5843 20.4284 15.6444 20.2832C15.7046 20.1381 15.7927 20.0062 15.9038 19.8951C16.0149 19.7839 16.1468 19.6958 16.292 19.6357C16.4372 19.5756 16.5928 19.5447 16.7499 19.5447L20.3391 19.5442C20.9992 19.5442 21.5355 20.0799 21.5355 20.7406C21.5356 20.8977 21.5047 21.0533 21.4445 21.1985C21.3844 21.3437 21.2963 21.4756 21.1852 21.5867C21.0741 21.6978 20.9422 21.7859 20.797 21.8461C20.6518 21.9062 20.4962 21.9371 20.3391 21.9371L16.7499 21.9376ZM29.9104 36.294H10.7678C10.6106 36.2941 10.455 36.2632 10.3099 36.203C10.1647 36.1429 10.0328 36.0548 9.92168 35.9437C9.81057 35.8326 9.72244 35.7007 9.66233 35.5555C9.60221 35.4103 9.57129 35.2547 9.57132 35.0976C9.57129 34.9405 9.60221 34.7849 9.66233 34.6397C9.72244 34.4945 9.81057 34.3626 9.92168 34.2515C10.0328 34.1404 10.1647 34.0523 10.3099 33.9921C10.455 33.932 10.6106 33.9011 10.7678 33.9011H29.9104C30.0676 33.9011 30.2232 33.932 30.3683 33.9921C30.5135 34.0523 30.6454 34.1404 30.7565 34.2515C30.8676 34.3626 30.9558 34.4945 31.0159 34.6397C31.076 34.7849 31.1069 34.9405 31.1069 35.0976C31.1069 35.2547 31.076 35.4103 31.0159 35.5555C30.9558 35.7007 30.8676 35.8326 30.7565 35.9437C30.6454 36.0548 30.5135 36.1429 30.3683 36.203C30.2232 36.2632 30.0676 36.2941 29.9104 36.294ZM5.98211 26.7227H3.58921C3.43208 26.7228 3.27648 26.6918 3.13131 26.6317C2.98613 26.5716 2.85422 26.4835 2.74311 26.3724C2.63201 26.2613 2.54388 26.1293 2.48376 25.9842C2.42365 25.839 2.39273 25.6834 2.39276 25.5263C2.39273 25.3691 2.42365 25.2135 2.48376 25.0684C2.54388 24.9232 2.63201 24.7913 2.74311 24.6802C2.85422 24.5691 2.98613 24.4809 3.13131 24.4208C3.27648 24.3607 3.43208 24.3298 3.58921 24.3298H5.98211C6.13924 24.3298 6.29484 24.3607 6.44001 24.4208C6.58519 24.4809 6.7171 24.5691 6.82821 24.6802C6.93931 24.7913 7.02744 24.9232 7.08756 25.0684C7.14767 25.2135 7.17859 25.3691 7.17856 25.5263C7.17859 25.6834 7.14767 25.839 7.08756 25.9842C7.02744 26.1293 6.93931 26.2613 6.82821 26.3724C6.7171 26.4835 6.58519 26.5716 6.44001 26.6317C6.29484 26.6918 6.13924 26.7228 5.98211 26.7227Z" fill="#E4EAF8"/>
<path d="M62.2138 62.6158H53.8389V57.8302H58.6245C60.6068 57.8302 62.2138 59.4371 62.2138 61.4194V62.6158ZM11.9642 46.8714L14.7996 38.991L19.3026 40.6113L17.6823 45.1143C17.0112 46.9795 14.9551 47.9477 13.0899 47.2764L11.9642 46.8714Z" fill="#D5DCED"/>
<path d="M51.4461 17.1519C48.803 17.1519 46.6604 15.0093 46.6604 12.3662V9.97334C46.6604 7.99108 48.2673 6.38413 50.2496 6.38413H55.6335C55.7922 6.38417 55.9443 6.44721 56.0565 6.55939C56.1687 6.67157 56.2317 6.82371 56.2317 6.98236V12.3662C56.2317 15.0093 54.0891 17.1519 51.4461 17.1519Z" fill="#F5C882"/>
<path d="M49.4321 27.1765C49.9853 25.9901 51.389 25.4686 52.5825 26.0056L53.405 26.3758L55.456 22.0511L52.1385 20.5583C51.608 20.3196 50.9923 20.5064 50.6612 20.9847C49.4642 22.7128 47.5888 23.563 46.0438 22.9145C44.446 22.2439 43.7384 20.1982 44.2244 18.0546C44.3504 17.4988 44.0766 16.9305 43.557 16.6967L39.8741 15.0393L37.8234 19.364L38.5537 19.6925C39.7705 20.2401 40.3043 21.6768 39.7406 22.8861L35.0747 32.8917L44.877 36.944L49.4321 27.1765Z" fill="#7DF5A5"/>
<path d="M44.8773 36.944L35.075 32.8918L30.8056 42.0475L36.089 44.2316L38.1359 40.2329L47.1552 43.9614L49.2368 38.7639L44.8758 36.947L44.8773 36.944Z" fill="#5B5D6E"/>
<path opacity="0.27" d="M40.8157 20.6504L38.5539 19.6925C39.7707 20.2401 40.3045 21.6768 39.7408 22.8861L35.075 32.8917L37.3753 33.8428L41.9671 23.5768C42.4705 22.4511 41.9514 21.1314 40.8157 20.6504Z" fill="#5B5D6E"/>
<path d="M37.3753 33.8427L35.075 32.8918L30.8056 42.0475L33.2528 43.0592L37.3753 33.8427Z" fill="#464655"/>
<path d="M39.7407 22.8861L35.0748 32.8917L37.3751 33.8428L41.967 23.5768C42.4705 22.4511 41.9512 21.1313 40.8157 20.6504L38.5539 19.6925C39.7707 20.2402 40.3047 21.677 39.7407 22.8861Z" fill="#64DCA0"/>
<path d="M50.2496 12.3662V9.97334C50.2496 7.99108 51.8566 6.38413 53.8388 6.38413H50.2496C48.2673 6.38413 46.6604 7.99108 46.6604 9.97334V12.3662C46.6604 15.0093 48.803 17.1519 51.4461 17.1519C52.0816 17.1519 52.6856 17.0221 53.2407 16.7971C51.4882 16.0864 50.2496 14.3737 50.2496 12.3662Z" fill="#F5AF73"/>
<path d="M50.2496 6.38413C48.2673 6.38413 46.6604 7.99108 46.6604 9.97334V12.3662C46.6604 12.7819 46.7299 13.1782 46.8295 13.5627H48.9691C49.7692 13.5627 50.5162 13.1628 50.9601 12.4971L51.9322 11.0389C52.1507 10.7112 52.4468 10.4424 52.7941 10.2565C53.1414 10.0706 53.5292 9.97337 53.9232 9.97334H56.2319V6.98236C56.2318 6.82371 56.1688 6.67157 56.0566 6.55939C55.9444 6.44721 55.7923 6.38417 55.6336 6.38413H50.2496Z" fill="#6E4848"/>
<path d="M46.6604 9.97334V12.3662C46.6604 12.7819 46.7299 13.1782 46.8295 13.5627H48.9691C49.4589 13.5627 49.9194 13.398 50.3121 13.1289C50.2711 12.8768 50.2501 12.6218 50.2496 12.3664V9.97334C50.2496 7.99108 51.8566 6.38413 53.8388 6.38413H50.2496C48.2673 6.38413 46.6604 7.99108 46.6604 9.97334Z" fill="#643C3E"/>
</svg>
