<svg width="69" height="69" viewBox="0 0 69 69" fill="none" xmlns="http://www.w3.org/2000/svg">
<path d="M68.6298 17.3945C67.7905 16.1285 66.0658 15.9565 64.9973 16.9441L58.7433 22.7309C58.5709 22.8904 58.3554 22.9957 58.1236 23.0335C57.8918 23.0713 57.654 23.0401 57.4398 22.9437L52.1387 20.5582C51.6082 20.3196 50.9925 20.5064 50.6614 20.9846C49.4644 22.7127 47.589 23.563 46.044 22.9145C44.4463 22.2439 43.7385 20.1982 44.2246 18.0546C44.3506 17.4988 44.0769 16.9305 43.5572 16.6967L37.7561 14.0863C36.7204 13.6202 35.5735 13.4586 34.4494 13.6203C33.3253 13.782 32.2704 14.2604 31.4081 14.9994L24.861 20.6112C23.9564 21.3866 23.6475 22.7231 24.2669 23.7409C25.0569 25.0385 26.7747 25.2756 27.8787 24.3282L34.5233 18.633C34.6958 18.4851 34.9069 18.3894 35.1317 18.3571C35.3566 18.3247 35.586 18.357 35.7932 18.4502L38.5542 19.6925C39.771 20.2401 40.3048 21.6768 39.7411 22.8861L30.2912 43.1513C30.1674 43.4178 29.9498 43.6293 29.68 43.7453C29.4101 43.8614 29.1069 43.874 28.8284 43.7805L19.3032 40.6114L17.6826 45.1142L28.1534 48.5952C28.7636 48.7992 29.4027 48.9034 30.0462 48.9036C32.3145 48.9036 34.4604 47.6056 35.4663 45.4482L38.136 40.2328L49.2172 44.8139C49.3796 44.8813 49.525 44.9837 49.6432 45.1139C49.7613 45.2441 49.8492 45.3987 49.9006 45.5668L53.8388 57.8301H58.6244L54.2284 43.1832C53.971 42.3431 53.5313 41.5701 52.9406 40.9196C52.3499 40.269 51.6229 39.7569 50.8114 39.4199L44.8756 36.9468L49.4319 27.1763C49.9851 25.99 51.3888 25.4684 52.5823 26.0055L55.4756 27.3074C56.248 27.6557 57.0855 27.8359 57.9328 27.8361C59.4386 27.8359 60.8889 27.2672 61.9934 26.2437L68.1569 20.5413C69.0309 19.7329 69.2877 18.3866 68.6298 17.3945Z" fill="#F5C882"/>
<path d="M30.8056 42.0475L30.2907 43.1514C30.167 43.4178 29.9494 43.6293 29.6796 43.7454C29.4097 43.8615 29.1065 43.874 28.828 43.7806L30.5382 44.3291C31.6069 44.6718 32.7623 44.156 33.2206 43.1315L33.2529 43.0592L30.8056 42.0475Z" fill="#F5AF73"/>
<path d="M62.2138 62.6158H53.8389V57.8302H58.6245C60.6068 57.8302 62.2138 59.4371 62.2138 61.4194V62.6158ZM11.9642 46.8714L14.7996 38.991L19.3026 40.6113L17.6823 45.1143C17.0112 46.9795 14.9551 47.9477 13.0899 47.2764L11.9642 46.8714Z" fill="#D5DCED"/>
<path d="M51.4461 17.1519C48.803 17.1519 46.6604 15.0093 46.6604 12.3662V9.97334C46.6604 7.99107 48.2673 6.38412 50.2496 6.38412H55.6335C55.7922 6.38416 55.9443 6.4472 56.0565 6.55938C56.1687 6.67156 56.2317 6.8237 56.2317 6.98235V12.3662C56.2317 15.0093 54.0891 17.1519 51.4461 17.1519Z" fill="#F5C882"/>
<path d="M49.4321 27.1765C49.9853 25.9901 51.389 25.4686 52.5825 26.0056L53.405 26.3758L55.456 22.0511L52.1385 20.5583C51.608 20.3196 50.9923 20.5064 50.6612 20.9847C49.4642 22.7128 47.5888 23.563 46.0438 22.9145C44.446 22.2439 43.7384 20.1982 44.2243 18.0546C44.3504 17.4988 44.0766 16.9305 43.557 16.6967L39.8741 15.0393L37.8234 19.364L38.5537 19.6925C39.7705 20.2401 40.3043 21.6768 39.7406 22.8861L35.0747 32.8917L44.877 36.944L49.4321 27.1765Z" fill="#7DF5A5"/>
<path d="M44.8773 36.944L35.075 32.8918L30.8056 42.0475L36.089 44.2316L38.1359 40.2329L47.1552 43.9614L49.2368 38.7639L44.8758 36.947L44.8773 36.944Z" fill="#5B5D6E"/>
<path opacity="0.27" d="M40.8157 20.6504L38.5539 19.6925C39.7707 20.2401 40.3045 21.6768 39.7408 22.8861L35.075 32.8917L37.3753 33.8428L41.9671 23.5767C42.4705 22.451 41.9514 21.1314 40.8157 20.6504Z" fill="#5B5D6E"/>
<path d="M37.3753 33.8427L35.075 32.8918L30.8056 42.0475L33.2528 43.0592L37.3753 33.8427Z" fill="#464655"/>
<path d="M39.7407 22.8861L35.0748 32.8917L37.3751 33.8428L41.967 23.5767C42.4705 22.451 41.9512 21.1313 40.8157 20.6504L38.5539 19.6925C39.7707 20.2402 40.3047 21.6769 39.7407 22.8861Z" fill="#64DCA0"/>
<path d="M50.2496 12.3662V9.97334C50.2496 7.99107 51.8566 6.38412 53.8388 6.38412H50.2496C48.2673 6.38412 46.6604 7.99107 46.6604 9.97334V12.3662C46.6604 15.0093 48.803 17.1519 51.4461 17.1519C52.0816 17.1519 52.6856 17.0221 53.2407 16.7971C51.4882 16.0864 50.2496 14.3737 50.2496 12.3662Z" fill="#F5AF73"/>
<path d="M50.2496 6.38412C48.2673 6.38412 46.6604 7.99107 46.6604 9.97334V12.3662C46.6604 12.7819 46.7299 13.1782 46.8295 13.5627H48.9691C49.7692 13.5627 50.5162 13.1628 50.9601 12.4971L51.9322 11.0389C52.1507 10.7112 52.4468 10.4424 52.7941 10.2565C53.1414 10.0706 53.5292 9.97336 53.9232 9.97334H56.2319V6.98235C56.2318 6.8237 56.1688 6.67156 56.0566 6.55938C55.9444 6.4472 55.7923 6.38416 55.6336 6.38412H50.2496Z" fill="#6E4848"/>
<path d="M46.6604 9.97334V12.3662C46.6604 12.7819 46.7299 13.1782 46.8295 13.5627H48.9691C49.4589 13.5627 49.9194 13.398 50.3121 13.1289C50.2711 12.8768 50.2501 12.6218 50.2496 12.3664V9.97334C50.2496 7.99107 51.8566 6.38412 53.8388 6.38412H50.2496C48.2673 6.38412 46.6604 7.99107 46.6604 9.97334Z" fill="#643C3E"/>
</svg>
